<?xml version="1.0" encoding="UTF-8"?>
<svg id="Layer_1" data-name="Layer 1" xmlns="http://www.w3.org/2000/svg" viewBox="0 0 220.21 47.69">
  <defs>
    <style>
      .cls-1 {
        fill: #c1b0ea;
      }

      .cls-2 {
        fill: #a88cea;
      }

      .cls-3 {
        fill: #a87bef;
      }
    </style>
  </defs>
  <path class="cls-3" d="M0,11.75h8v3.66c1.37-1.5,2.89-2.63,4.56-3.37,1.67-.74,3.49-1.11,5.47-1.11s3.79.49,5.39,1.46c1.6.98,2.89,2.4,3.87,4.28,1.27-1.88,2.83-3.3,4.68-4.28,1.85-.98,3.87-1.46,6.05-1.46s4.26.53,5.98,1.58,2.96,2.43,3.71,4.13,1.13,4.46,1.13,8.29v18.69h-8.06v-16.17c0-3.61-.45-6.06-1.35-7.34-.9-1.28-2.25-1.92-4.04-1.92-1.37,0-2.59.39-3.68,1.17-1.08.78-1.89,1.86-2.42,3.24s-.79,3.59-.79,6.64v14.38h-8.06v-15.44c0-2.85-.21-4.92-.63-6.2-.42-1.28-1.05-2.23-1.89-2.86-.84-.62-1.86-.94-3.05-.94-1.33,0-2.54.4-3.63,1.19s-1.9,1.9-2.44,3.33c-.54,1.43-.81,3.67-.81,6.74v14.18H0V11.75Z"/>
  <path class="cls-3" d="M95.83,0h8v11.75h4.75v6.88h-4.75v24.99h-8v-24.99h-4.1v-6.88h4.1V0Z"/>
  <path class="cls-3" d="M112.82,11.75h8.09v15.35c0,2.99.21,5.06.62,6.23s1.07,2.07,1.98,2.71c.91.64,2.03.97,3.36.97s2.46-.32,3.39-.95c.93-.63,1.62-1.57,2.07-2.8.33-.92.5-2.88.5-5.89v-15.62h8v13.51c0,5.57-.44,9.38-1.32,11.43-1.07,2.5-2.66,4.42-4.75,5.76s-4.75,2.01-7.97,2.01c-3.5,0-6.32-.78-8.48-2.34s-3.68-3.74-4.56-6.53c-.62-1.93-.94-5.45-.94-10.55v-13.27Z"/>
  <g>
    <rect class="cls-1" x="67.72" y="39.97" width="7.71" height="7.71"/>
    <rect class="cls-1" x="67.72" y="7.69" width="7.71" height="7.71"/>
    <rect class="cls-1" x="83.86" y="23.83" width="7.71" height="7.71" transform="translate(60.03 115.4) rotate(-90)"/>
    <rect class="cls-1" x="51.57" y="23.83" width="7.71" height="7.71" transform="translate(27.74 83.11) rotate(-90)"/>
  </g>
  <path class="cls-3" d="M168.37,16.2l-4.95,4.95c-2.01-1.99-3.84-2.99-5.48-2.99-.9,0-1.6.19-2.11.57s-.76.85-.76,1.42c0,.43.16.83.48,1.19.32.36,1.12.85,2.39,1.48l2.93,1.46c3.09,1.52,5.21,3.08,6.36,4.66s1.73,3.44,1.73,5.57c0,2.83-1.04,5.2-3.12,7.09s-4.87,2.84-8.36,2.84c-4.65,0-8.36-1.82-11.13-5.45l4.92-5.36c.94,1.09,2.04,1.98,3.3,2.65s2.38,1.01,3.35,1.01c1.05,0,1.9-.25,2.55-.76s.97-1.09.97-1.76c0-1.23-1.16-2.43-3.49-3.6l-2.7-1.35c-5.16-2.6-7.73-5.85-7.73-9.76,0-2.52.97-4.67,2.92-6.46s4.43-2.68,7.46-2.68c2.07,0,4.02.45,5.84,1.36s3.37,2.21,4.64,3.91Z"/>
  <g>
    <circle class="cls-1" cx="188.59" cy="32.55" r="11.62"/>
    <circle class="cls-2" cx="198.59" cy="22.55" r="11.62"/>
    <circle class="cls-3" cx="208.59" cy="12.55" r="11.62"/>
  </g>
  <path class="cls-3" d="M71.43,10.93c3.01,0,5.83.75,8.48,2.26,2.65,1.5,4.71,3.54,6.2,6.12,1.48,2.58,2.23,5.36,2.23,8.35s-.75,5.82-2.24,8.44-3.53,4.66-6.11,6.14-5.42,2.21-8.53,2.21c-4.57,0-8.47-1.63-11.7-4.88-3.23-3.25-4.85-7.2-4.85-11.85,0-4.98,1.83-9.13,5.48-12.45,3.2-2.89,6.88-4.34,11.04-4.34ZM71.56,18.46c-2.48,0-4.55.86-6.21,2.59s-2.48,3.94-2.48,6.64.82,5.02,2.45,6.74c1.63,1.72,3.7,2.58,6.21,2.58s4.59-.87,6.25-2.61c1.66-1.74,2.49-3.97,2.49-6.71s-.82-4.96-2.45-6.67c-1.63-1.71-3.72-2.56-6.27-2.56Z"/>
</svg>